<?xml version="1.0" encoding="UTF-8"?>
<svg width="700pt" height="700pt" version="1.1" viewBox="0 0 700 700" xmlns="http://www.w3.org/2000/svg">
 <path d="m577.5 70h-52.5v-52.5c0-9.6602-7.8398-17.5-17.5-17.5h-315c-28.945 0-52.5 23.555-52.5 52.5v437.5c0 38.605 31.395 70 70 70h367.5c9.6602 0 17.5-7.8398 17.5-17.5v-455c0-9.6602-7.8398-17.5-17.5-17.5zm-105 385h-210c-9.6602 0-17.5-7.8398-17.5-17.5s7.8398-17.5 17.5-17.5h210c9.6602 0 17.5 7.8398 17.5 17.5s-7.8398 17.5-17.5 17.5zm-227.5-245c0-39.27 23.066-70 52.5-70s52.5 30.73 52.5 70c0 30.977-14.453 56.422-35 65.836v91.664c0 9.6602-7.8398 17.5-17.5 17.5s-17.5-7.8398-17.5-17.5v-91.664c-20.547-9.4141-35-34.859-35-65.836zm245 87.5c0 9.6602-7.8398 17.5-17.5 17.5h-52.5v52.5c0 9.6602-7.8398 17.5-17.5 17.5s-17.5-7.8398-17.5-17.5v-210c0-9.6602 7.8398-17.5 17.5-17.5 48.266 0 87.5 39.27 87.5 87.5zm0-227.5h-297.5c-9.6602 0-17.5-7.8398-17.5-17.5s7.8398-17.5 17.5-17.5h297.5z"/>
</svg>
